/* XPM */
static char *b3ddbfeffd524244d6fab85fb606af78[] = {
/* columns rows colors chars-per-pixel */
"256 64 49 1 ",
"  c #010101",
". c #0C0C0C",
"X c #141414",
"o c #1B1B1B",
"O c #242424",
"+ c #2C2C2E",
"@ c #2E2E30",
"# c #333334",
"$ c #363638",
"% c #3B3B3B",
"& c #3F3F41",
"* c #434344",
"= c #474748",
"- c #4B4B4C",
"; c #4F4F51",
": c #535354",
"> c #575759",
", c #5B5B5C",
"< c #5F5F61",
"1 c #626263",
"2 c #676769",
"3 c #6B6B6C",
"4 c #6F6F70",
"5 c #737374",
"6 c #777778",
"7 c #7C7C7C",
"8 c #7F7F81",
"9 c #838383",
"0 c #878789",
"q c #8B8B8B",
"w c #8F8F90",
"e c #939393",
"r c #979798",
"t c #9C9C9C",
"y c #A4A4A4",
"u c #A7A7A8",
"i c #ABABAB",
"p c #B3B3B4",
"a c #BCBCBC",
"s c #BFBFC0",
"d c #C3C3C3",
"f c #CBCBCB",
"g c #D3D3D3",
"h c #DCDCDC",
"j c #E4E4E4",
"k c #ECECEC",
"l c #EFEFF0",
"z c #F4F4F4",
"x c None",
/* pixels */
"xxxxxxxxxxxxxxxxxxxxxxxxxxxxxxxxxxxxxxxxxxxxxxxxxxxxxxxxxxxxxxxxxxxxxxxxxxxxxxxxxxxxxxxxxxxxxxxxxxxxxxxxxxxxxxxxxxxxxxxxxxxxxxxxxxxxxxxxxxxxxxxxxxxxxxxxxxxxxxxxxxxxxxxxxxxxxxxxxxxxxxxxxxxxxxxxxxxxxxxxxxxxxxxxxxxxxxxxxxxxxxxxxxxxxxxxxxxxxxxxxxxxxxxxxxxxxxxx",
"xxxxxxxxxxxxxxxxxxxxxxxxxxxxxxxxxxxxxxxxxxxxxxxxxxxxxxxxxxxxxxxxxxxxxxxxxxxxxxxxxxxxxxxxxxxxxxxxxxxxxxxxxxxxxxxxxxxxxxxxxxxxxxxxxxxxxxxxxxxxxxxxxxxxxxxxxxxxxxxxxxxxxxxxxxxxxxxxxxxxxxxxxxxxxxxxxxxxxxxxxxxxxxxxxxxxxxxxxxxxxxxxxxxxxxxxxxxxxxxxxxxxxxxxxxxxxxxx",
"xxxxxxxxxxxxxxxxxxxxxxxxxxxxxxxxxxxxxxxxxxxxxxxxxxxxxxxxxxxxxxxxxxxxxxxxxxxxxxxxxxxxxxxxxxxxxxxxxxxxxxxxxxxxxxxxxxxxxxxxxxxxxxxxxxxxxxxxxxxxxxxxxxxxxxxxxxxxxxxxxxxxxxxxxxxxxxxxxxxxxxxxxxxxxxxxxxxxxxxxxxxxxxxxxxxxxxxxxxxxxxxxxxxxxxxxxxxxxxxxxxxxxxxxxxxxxxxx",
"xxxxxxxxxxxxxxxxxxxxxxxxxxxxxxxxxxxxxxxxxxxxxxxxxxxxxxxxxxxxxxxxxxxxxxxxxxxxxxxxxxxxxxxxxxxxxxxxxxxxxxxxxxxxxxxxxxxxxxxxxxxxxxxxxxxxxxxxxxxxxxxxxxxxxxxxxxxxxxxxxxxxxxxxxxxxxxxxxxxxxxxxxxxxxxxxxxxxxxxxxxxxxxxxxxxxxxxxxxxxxxxxxxxxxxxxxxxxxxxxxxxxxxxxxxxxxxxx",
"xxxxxxxxxxxxxxxxxxxxzljjjjkzxxxxxxxxxxxxxxxxxxxxxxxxxxxxxxxxxxxxxxxxxxxxxxxxxxxxxxxxxxxxxxxxxxxxxxxxxxxxxxxxxxxxxxxxxxxxxxxxxxxxxxxxxxxxxxxxxxxxxxxxxxxxxxxxxxxxxxxxxxxxxxxxxxxxxxxxxxxxxxxxxxxxxxxxxxxxxxxxxxxxxxxxxxxxxxxxxxxxxxxxxxxxxxxxxxxxxxxxxxxxxxxxxxxx",
"xxxxxxxxxxxxxxxxjdt71:;*=-:<6rahxxxxxxxxxxxxxxxxxxxxxxxxxxxxxxxxxxxxxxxxxxxxxxxxxxxxxxxxxxxxxxxxxxxxxxxxxxxxxxxxxxxxxxxxxxxxxxxxxxxxxxxxxxxxxxxxxxxxxxxxxxxxxxxxxxxxxxxxxxxxxxxxxxxxxxxxxxxxxxxxxxxxxxxxxxxxxxxxxxxxxxxxxxxxxxxxxxxxxxxxxxxxxxxxxxxxxxxxxxxxxxxx",
"xxxxxxxxxxxxxkp6=#@+@@@+++++++#=3ijxxxxxxxxxxxxxxxxxxxxxxxxxxxxxxxxxxxxxxxxxxxxxxxxxxxxxxxxxxxxxxxxxxxxxxxxxxxxxxxxxxxxxxxxxxxxxxxxxxxxxxxxxxxxxxxxxxxxxxxxxxxxxxxxxxxxxxxxxxxxxxxxxxxxxxxxxxxxxxxxxxxxxxxxxxxxxxxxxxxxxxxxxxxxxxxxxxxxxxxxxxxxxxxxxxxxxxxxxxxxx",
"xxxxxxxxxxxjr:#++@@@@@@@@@@@@@+++@-qhxxxxxxxxxxxxxxxxxxxxxxxxxxxxxxxxxxxxxxxxxxxxxxxxxxxxxxxxxxxxxxxxxxxxxxxxxxxxxxxxxxxxxxxxxxxxxxxxxxxxxxxxxxxxxxxxxxxxxxxxxxxxxxxxxxxxxxxxxxxxxxxxxxxxxxxxxxxxxxxxxxxxxxxxxxxxxxxxxxxxxxxxxxxxxxxxxxxxxxxxxxxxxxxxxxxxxxxxxxx",
"xxxxxxxxxzy;@+@@@@@@@@@@@@@@@@@@@@++=ekxxxxxxxxxxxxxxxxxxxxxxxxxxxxxxxxxxxxxxxxxxxxxxxxxxxxxxxxxxxxxxxxxxxxxxxxxxxxxxxxxxxxxxxxxxxxxxxxxxxxxxxxxxxxxxxxxxxxxxxxxxxxxxxxxxxxxxxxxxxxxxxxxxxxxxxxxxxxxxxxxxxxxxxxxxxxxxxxxxxxxxxxxxxxxxxxxxxxxxxxxxxxxxxxxxxxxxxxx",
"xxxxxxxxg2@+@@@@@@@@@@@@@@@@@@@@@@@@+@>dxxxxxxxxxxxxxxxxxxxxxxxxxxxxxxxxxxxxxxxxxxxxxxxxxxxxxxxxxxxxxxxxxxxxxxxxxxxxxxxxxxxxxxxxxxxxxxxxxxxxxxxxxxxxxxxxxxxxxxxxxxxxxxxxxxxxxxxxxxxxxxxxxxxxxxxxxxxxxxxxxxxxxxxxxxxxxxxxxxxxxxxxxxxxxxxxxxxxxxxxxxxxxxxxxxxxxxxx",
"xxxxxxxp-+@@@@@@@@@@@@@@@@@@@@@@@@@@@@+%yxxxxxxxxxxxxxxxxxxxxxxxxxxxxxxxxxxxxxxxxxxxxxxxxxxxxxxxxxxxxxxxxxxxxxxxxxxxxxxxxxxxxxxxxxxxxxxxxxxxxxxxxxxxxxxxxxxxxxxxxxxxxxxxxxxxxxxxxxxxxxxxxxxxxxxxxxxxxxxxxxxxxxxxxxxxxxxxxxxxxxxxxxxxxxxxxxxxxxxxxxxxxxxxxxxxxxxx",
"xxxxxxu%+@@@@@@@@@@@@@@@@@@@@@@@@@@@@@@+#ezxxxxxxxxxxxxxxxxxxxxxxxxxxxxxxxxxxxxxxxxxxxxxxxxxxxxxxxxxxxxxxxxxxxxxxxxxxxxxxxxxxxxxxxxxxxxxxxxxxxxxxxxxxxxxxxxxxxxxxxxxxxxxxxxxxxxxxxxxxxxxxxxxxxxxxxxxxxxxxxxxxxxxxxxxxxxxxxxxxxxxxxxxxxxxxxxxxxxxxxxxxxxxxxxxxxxx",
"xxxxxi$+@@@@@@@@@@@@@@@@@@@@@@@@@@@@@@@@+@exxxxxxxxxxxxxxxxxxxxxxxxxxxxxxxxxxxxxxxxxxxxxxxxxxxxxxxxxxxxxxxxxxxxxxxxxxxxxxxxxxxxxxxxxxxxxxxxxxxxxxxxxxxxxxxxxxxxxxxxxxxxxxxxxxxxxxxxxxxxxxxxxxxxxxxxxxxxxxxxxxxxxxxxxxxxxxxxxxxxxxxxxxxxxxxxxxxxxxxxxxxxxxxxxxxxx",
"xxxxa&+@@@@@@@@@@@@@@@@@@@@@@@@@@@@@@@@@@+#yxxxxxxxxxxxxxxxxxxxxxxxxxxxxxxxxxxxxxxxxxxxxxxxxxxxxxxxxxxxxxxxxxxxxxxxxxxxxxxxxxxxxxxxxxxxxxxxxxxxxxxxxxxxxxxxxxxxxxxxxxxxxxxxxxxxxxxxxxxxxxxxxxxxxxxxxxxxxxxxxxxxxxxxxxxxxxxxxxxxxxxxxxxxxxxxxxxxxxxxxxxxxxxxxxxxx",
"xxxj;+@@@@@@@@@@@@@@@@@@@@@@@@@@@@@@@@@+@@+*fxxxxxxxxxxxxxxxxxxxxxxxxxxxxxxxxxxxxxxxxxxxxxxxxxxxxxxxxxxxxxxxxxxxxxxxxxxxxxxxxxxxxxxxxxxxxxxxxxxxxxxxxxxxxxxxxxxxxxxxxxxxxxxxxxxxxxxxxxxxxxxxxxxxxxxxxxxxxxxxxxxxxxxxxxxxxxxxxxxxxxxxxxxxxxxxxxxxxxxxxxxxxxxxxxxx",
"xxx8+@@@@@@@@@@@@@@@@@@@@@@@@@@@@@@@@@@@@@@+2lxxxxxxxxxxxxxxxxxxxxxxxxxxxxxxxxxxxxxxxxxxxxxxxxxxxxxxxxxxxxxxxxxxxxxxxxxxxxxxxxxxxxxxxxxxxxxxxxxxxxxxxxxxxxxxxxxxxxxxxxxxxxxxxxxxxxxxxxxxxxxxxxxxxxxxxxxxxxxxxxxxxxxxxxxxxxxxxxxxxxxxxxxxxxxxxxxxxxxxxxxxxxxxxxxx",
"xxf%+@@@@@@@@@@@@@@@@@@@@@@@@@@@@@@@@@@@@@@@#ixxxxxxxxxxxxxxxxxxxxxxxxxxxxxxxxxxxxxxxxxxxxxxxxxxxxxxxxxxxxxxxxxxxxxxxxxxxxxxxxxxxxxxxxxxxxxxxxxxxxxxxxxxxxxxxxxxxxxxxxxxxxxxxxxxxxxxxxxxxxxxxxxxxxxxxxxxxxxxxxxxxxxxxxxxxxxxxxxxxxxxxxxxxxxxxxxxxxxxxxxxxxxxxxxx",
"xz6+@@@@@@@@@@@@@@@@@@@@@@@@@@@@@@@@@@@@@@@@+<zxxxxxxxxxxxxxxxxxxxxxxxxxxxxxxxxxxxxxxxxxxxxxxxxxxxxxxxxxxxxxxxxxxxxxxxxxxxxxxxxxxxxxxxxxxxxxxxxxxxxxxxxxxxxxxxxxxxxxxxxxxxxxxxxxxxxxxxxxxxxxxxxxxxxxxxxxxxxxxxxxxxxxxxxxxxxxxxxxxxxxxxxxxxxxxxxxxxxxxxxxxxxxxxxx",
"xh*@@@@@@@@@@@@@@@@@@@@@@@@@@@@@@@@@@@@@@@@@@$dxxxxxxxxxxxxxxxxxxxxxxxxxxxxxxxxxxxxxxxxxxxxxxxxxxxxxxxxxxxxxxxxxxxxxxxxxxxxxxxxxxxxxxxxxxxxxxxxxxxxxxxxxxxxxxxxxxxxxxxxxxxxxxxxxxxxxxxxxxxxxxxxxxxxxxxxxxxxxxxxxxxxxxxxxxxxxxxxxxxxxxxxxxxxxxxxxxxxxxxxxxxxxxxxx",
"xi@@@@@@@@@@@@@@@@@@@@@@@@@@@@@@@@@@@@@@@@@@++qxxxxxxxxxxxxxxxxxxxxxxxxxxxxxxxxxxxxxxxxxxxxxxxxxxxxxxxxxxxxxxxxxxxxxxxxxxxxxxxxxxxxxxxxxxxxxxxxxxxxxxxxxxxxxxxxxxxxxxxxxxxxxxxxxxxxxxxxxxxxxxxxxxxxxxxxxxxxxxxxxxxxxxxxxxxxxxxxxxxxxxxxxxxxxxxxxxxxxxxxxxxxxxxxx",
"x7+@@@@@@@@@@@@@@@@@@@@@@@@@@@@@@@@@@@@@@@@@@+1zxxxxxxxxxxxxxxxxxxxxxxxxxxxxxxxxxxxxxxxxxxxxxxxxxxxxxxxxxxxxxxxxxxxxxxxxxxxxxxxxxxxxxxxxxxxxxxxxxxxxxxxxxxxxxxxxxxxxxxxxxxxxxxxxxxxxxxxxxxxxxxxxxxxxxxxxxxxxxxxxxxxxxxxxxxxxxxxxxxxxxxxxxxxxxxxxxxxxxxxxxxxxxxxx",
"z<+@@@@@@@@@@@@@@@@@@@@@@@@@@@@@@@@@@@@@@@@@@+-jxxxxxxxxxxxxxxxxxxxxxxxxxxxxxxxxxxxxxxxxxxxxxxxxxxxxxxxxxxxxxxxxxxxxxxxxxxxxxxxxxxxxxxxxxxxxxxxxxxxxxxxxxxxxxxxxxxxxxxxxxxxxxxxxxxxxxxxxxxxxxxxxxxxxxxxxxxxxxxxxxxxxxxxxxxxxxxxxxxxxxxxxxxxxxxxxxxxxxxxxxxxxxxxx",
"j:++@@@@@@@@@@@@@@@@@@@@@@@@@@@@@@@@@@@@@@@+++&hxxxxxxxxxxxxxxxxxxxxxxxxxxxxxxxxxxxxxxxxxxxxxxxxxxxxxxxxxxxxxxxxxxxxxxxxxxxxxxxxxxxxxxxxxxxxxxxxxxxxxxxxxxxxxxxxxxxxxxxxxxxxxxxxxxxxxxxxxxxxxxxxxxxxxxxxxxxxxxxxxxxxxxxxxxxxxxxxxxxxxxxxxxxxxxxxxxxxxxxxxxxxxxxx",
"l02>*#@++@@@@@@@@@@@@@@@@@@@@@@@@@@@@@+++@#*:27jxxxxxxxxxxxxxxxxxxxxxxxxxxxxxxxxxxxxxxxxxxxxxxxxxxxxxxxxxxxxxxxxxxxxxxxxxxxxxxxxxxxxxxxxxxxxxxxxxxxxxxxxxxxxxxxxxxxxxxxxxxxxxxxxxxxxxxxxxxxxxxxxxxxxxxxxxxxxxxxxxxxxxxxxxxxxxxxxxxxxxxxxxxxxxxxxxxxxxxxxxxxxxxxx",
"x9>29e6<=%@@+@@@@@@@@@@@@@@@@@@@@@@+@#$=>6e04>2kxxxxxxxxxxxxxxxxxxxxxxxxxxxxxxxxxxxxxxxxxxxxxxxxxxxxxxxxxxxxxxxxxxxxxxxxxxxxxxxxxxxxxxxxxxxxxxxxxxxxxxxxxxxxxxxxxxxxxxxxxxxxxxxxxxxxxxxxxxxxxxxxxxxxxxxxxxxxxxxxxxxxxxxxxxxxxxxxxxxxxxxxxxxxxxxxxxxxxxxxxxxxxxxx",
"l0@@*flhsy92:*#@@@@@@@@@@@@@@@@@@#&;18tagkh;@@2jxxxxxxxxxxxxxxxxxxxxxxxxxxxxxxxxxxxxxxxxxxxxxxxxxxxxxxxxxxxxxxxxxxxxxxxxxxxxxxxxxxxxxxxxxxxxxxxxxxxxxxxxxxxxxxxxxxxxxxxxxxxxxxxxxxxxxxxxxxxxxxxxxxxxxxxxxxxxxxxxxxxxxxxxxxxxxxxxxxxxxxxxxxxxxxxxxxxxxxxxxxxxxxxx",
"k7*@+2zxxxzjfie2$@@@@@@@@@@@@@@#1widhlxxxx9+@%2gxxxxxxxxxxxxxxxxxxxxxxxxxxxxxxxxxxxxxxxxxxxxxxxxxxxxxxxxxxxxxxxxxxxxxxxxxxxxxxxxxxxxxxxxxxxxxxxxxxxxxxxxxxxxxxxxxxxxxxxxxxxxxxxxxxxxxxxxxxxxxxxxxxxxxxxxxxxxxxxxxxxxxxxxxxxxxxxxxxxxxxxxxxxxxxxxxxxxxxxxxxxxxxxx",
"k2>@@#yxxxxxxxzku$+@@@@@@@@@@@@ejzxxxxxxxs$++;>gxxxxxxxxxfgxxxxxxxgfsddsdfkxxxzggxxxxxxxxxxkfjxxxxxxxxxxxxxxxxxxxxxxxxxxxxxxxxxxxxgdddddddddfhzxxxxxxxxxxxxxxxxxhfglxxxxxxxxxxxxxxxxxxxxxxxxxxxxxxxxxxxxxkfjxxxxxxxjffdffdffffhzxxxxxxxxxxxxxxxhayphxxxxxxxxxxxx",
"k><$@+-hxxxxxxxxx5+@@@@@@@@@@+<kxxxxxxxxk<+@@1-gxxxxxxxx0XXexxxxxwX.......%hxx9Xoexxxxxxxxg%.%gxxxxxxxxxxxxahxxxxxxxxxxxxxzghxxxxrX.........Xo-qjxxxxxxxxxxxxxxyoXX$0jxxxxxxxxxxxxxxxxxxxxxd37gxxxxxxxxxk-.#fxxxxxa+...X...X.Xo&9gxxxxxxxxxxxs,o   $gxxxxxxxxxxx",
"l>:-+@@3djzxxxxxxf&@@@@@@@@@@#pxxxxxxxkf8@@+&>&gxxxxxxxz%  -zxxxx>         pxz*  ,xxxxxxxx3   2xxxxxxxxxxxx:O0kxxxxxxxxxxz5X0xxxx-              +ixxxxxxxxxxxxx2     *hxxxxxxxxxxxxxxxxxxxk$  oqzxxxxxxxd.  exxxxx7              oexxxxxxxxz8X     .axh77gxxxxxx",
"l>%>@@@@$=2wahzxxx0@@@@@@@@@+4xxxzhsr3-$@@@@>=%gxxxxxxxl$  -xxxxxf,***=O  .pxxa:,fxxxxxxxsX   Xsxxxxxxxxxxx-  -gxxxxxxxxxd. 9xxxz=  .***=*=*#X   .txxxxxxxxxxxxg1$X   :zxxxxxxxxxxxxxxxxxxx5    3zxxxxxxd.  exxxxx5  .$*==*=%$X    7xxxxxxx9   .O$:rzx,  :xxxxxx",
"l>@1$@@@@+++@*>9igf>#@++++@#*sgp01*#++++@@@#1#%hxxxxxxxz$  -zxxxxxxxzzxr   pxxxxxxxxxxxxz;     :zxxxxxxxxxz-   +pxxxxxxxxp  9xxxz-  $kzzzzzzlf5.  Xaxxxxxxxxxxxxxzf*  .axxxxxxxxxxxxxxxxxxxzeo   9xxxxxxd.  exxxxx6  Xgzzzzzzzg0o   exxxxxgo  Ouhzxxxx6. 5xxxxxx",
"l:+;;@@@@@@@@+++@$;><>;&&-:<::&@+++@@@@@@@@*>@&gxxxxxxxz$  -zxxxxxxxxxxt   pxxxxxxxxxxxxu.      yxxxxxxxxxx-    Xqzxxxxxxp  9xxxx=  $zxxxxxxxxxe.  *kxxxxxxxxxxxxxxa.  0xxxxxxxxxxxxxxxxxxxxxaO  Xaxxxxxd.  exxxxx6  ohxxxxxxxxxpo  Ogxxxxi   exxxxxxxzppzxxxxxx",
"l<+$<@@@@@@@@++@@@@+@$=<2=&@@++@@@@@@@@@@@+>&@&hxxxxxxxz$  -xxxxxxxxxxxt   pxxxxxxxxxxxk$  X9o  $kxxxxxxxxz:  .  .2jxxxxxp. 9xxxz-  $lxxxxxxxxxx1   yxxxxxxxxxxxxxxd.  0xxxxxkpalxxxxxxxxxxxxxi.  >xxxxxd.  exxxxx6  Xhxxxxxxxxxxq   7xxxxi   qxxxxxxxxxxxxxxxxx",
"l<++<&@@@@@@@@@@@@@@@@:;;>#@@@@@@@@@@@@@@@$1#@&hxxxxxxxk$  -zxxxxxxxxxxy   ixxxxxxxxxxxq   3x5   wxxxxxxxxz- Xq#   *fxxxxh+ 9xxxx7  2xxxxxxxxxxxfX  1xxxxxxxxxxxxxk2  .ixxxxx5 .7xxxxxxxxxxxxxz-  Ohxxxxd.  wxxxxxi. *kxxxxxxxxxxj#  $kxxxgo  oqfzxxxxxxxxxxxxxx",
"z1+@=:@@@@@@@@@@@@@@@@<;:<$@@@@@@@@@@@@@@@-:@@&hxxxxxxxz$  -zxxxxxxxxxxt   ixxxxxxxxxxhO  OgxgO  Ohxxxxxxxx- Xgh:   Opxxxxa:rxxxxzyykxxxxxxxxxxxz%  $kxje655565553$   $kxxxxk#  -xxxxxxxxxxxxxx0  .axxxxd.  exxxxxzpehxxxxxxxxxxxx2  ogxxxx9    X%3ygzxxxxxxxxxx",
"xy@@#<@@@@@@@@@@@@@@@@<;:<#@@@@@@@@@@@@@@@,%++6xxxxxxxxz$  =xxxxxxxxxxxt   ixxxxxxxxxx5   9xxx0   5xxxxxxxx- Xgxl5.  Xqxxxxzzxxxxxxxxxxxxxxxxxxxx:  Ojx5             Osxxxxxj+  -xxxxxxxxxxxxxxt   pxxxxa.  wxxxxxxxxxxxxxxxxxxxxx0  .dxxxxz9o      o*9gxxxxxxxx",
"xl<+@<=@@@@@@@@@@@@@@@<;;<#@@@@@@@@@@@@@@%1@+=hxxxxxxxxk$  -zxxxxxxxxxxy   uxxxxxxxxxdX  #jxxxj$  Xfxxxxxxx- Xgxxxto  .3kxxxxxxxxxxxxxxxxxxxxxxxx:  Ojx-           X:fxxxxxxl$  $zxxxxxxxxxxxxx9  Xdxxxxd.  exxxxxxxxxxxxxxxxxxxxx9  .dxxxxxxg9%o      oqxxxxxxx",
"xxs%@&<@@@@@@@@@@@@@@@$-:$@@@@@@@@@@@@@@+;;+#uxxxxxxxxxz$  -xxxxxxxxxxxt   ixxxxxxxxx>   yxxxxxy.  ,zxxxxxz- Xgxxxxd$   :jxxxxxxxxxxxxxxxxxxxxxxk+  %zx-  Oereeeetigxxxxxxxxx1  Xdxxxxxxxxxxxxk*  Ojxxxxd.  exxxxxxxxxxxxxxxxxxxxx>  ohxxxxxxxxzgy5%X    rxxxxxx",
"xxxr@@<@@@@@@@@@@@@@@@+=:@@@@@@@@@@@@@@@@1$+7zxxxxxxxxxz%  -zxxxxxxxxxxy  .ixxxxxxxxi.  =zxxxxxz-  .axxxxxx- ogxxxxxj:   %fxxxxxxxxxxxxxxxxxxxxxa.  3xx-  $zxxxxxxxhjxxxxxxxxp   :zxxxxxxxxxxxq   2xxxxxd.  wxxxxxxxxxxxxxxxxxxxxhO  %zxxxxxxxxxxxxzg0X  $kxxxxx",
"xxxz5+:=+@@@@@@@@@@@@@@=:@@@@@@@@@@@@@@@&<@:jxxxxxxxxxxl$  -zxxxxxxxxxxt   pxxxxxxxk*  .axxxxxxxdo  yxxxxxx- Xgxxxxxxz7.  +fxxxxxxxxxxxxxxxxxxxz:  .pxz-  $lxxxxxz5X#fxxxxxxxz:   3kxxxxxxxxxrX  ofxxxxxa.  exxxxxxxxxxxxxxxxxxxx9   0xxxxxxzxxxxxxxxx>  Ohxxxxx",
"xxxxh:&<@@@@@@@@@@@@@@@=;@@@@@@@@@@@@@@@:*&sxxxxxxxxxxxz%  =xxxxxxxxxxxt  .pxxxxxxxr   1zxxxxxxxxa17jxxxxxz- XfxxxxxxxxyO  +gxxxxxxxxxxxxxxxxxz7   :zxx-  %zxxxxxk+  =kxxxxxxxg+   =pkxxxxzd,.  .txxxxxxd.  exxxxxxxxxxxxxxxxxxxy.  +hxxxxze=3gxxxxxxj%  Ojxxxxx",
"xxxxxd&<$@@@@@@@@@@@@@+=;@@@@@@@@@@@@@@#1$txxxxxxxxxxxxl$  -zxxxxxxxxxxy   pxxxxxxj+  ofxxxxxxxxxxxxxxxxxxx- Xgxxxxxxxxxd%  %hxxxxzjjjjkjjjjgy=   Ofxxx-  $zxxxxxx7   9xxxxxxxxd@   .#1905*X   Xexxxxxxxd.  exxxxxxxjkjjjjjjjhi,.  .yxxxxxgX  o5pggfr=   1xxxxxx",
"xxxxxxu;<$@@@@@@@@@@@@@=;+@@@@@@@@@@@@#::9zxxxxxxxxxxxxl$  -zxxxxxxxxxxt   pxxxxxx7   6xxxxxxxxxxxxxxxxxxxz- Ojxxxxxxxxxxj,  yxxxp%O+OOOOOOO.    Oaxxxx-  $zxxxxxxj+  odxxxxxxxxg>.           %pxxxxxxxxd.  exxxxxg-+OOO+OO+OX.   Xexxxxxxz>    .Xo.    +gxxxxxx",
"xxxxxxx0*<;@@@@@@@@@@@@=:@@@@@@@@@@@#=<=1kxxxxxxxxxxxxxz*  -xxxxxxxxxxxi   axxxxxz%  +hxxxxxxxxxxxxxxxxxxxx:oexxxxxxxxxxxxz9;hxxx:             .-fxxxxx:  *zxxxxxxxy.  4xxxxxxxxxzp:O      o-tkxxxxxxxxxf.  txxxxx9              $pxxxxxxxxk9O        X,gxxxxxxx",
"xxxxxxxk2@;<*@@@@@@@@@@=;@@@@@@@@@@&>:#-gxxxxxxxxxxxxxxxy+@ixxxxxxxxxxxj:O>kxxxxxxeO+pxxxxxxxxxxxxxxxxxxxxxdgxxxxxxxxxxxxxxxzxxxxi$OOOOOOOOO+%3pzxxxxxxp+Orxxxxxxxxx0$-gxxxxxxxxxxxxhpe99ephzxxxxxxxxxxxz2O=hxxxxxf*oOoooOoooO$,ykxxxxxxxxxxxht>#oX+>egzxxxxxxxx",
"xxxxxxxxg;+$<:@@@@@@@@+=;@@@@@@@@@-,&+%pxxxxxxxxxxxxxxxxxkkxxxxxxxxxxxxxzjzxxxxxxxxkkxxxxxxxxxxxxxxxxxxxxxxxxxxxxxxxxxxxxxxxxxxxxxljjjjjjjjjkzxxxxxxxxxxkjxxxxxxxxxxxzzxxxxxxxxxxxxxxxxxxxxxxxxxxxxxxxxxxzjzxxxxxxxzjhjhhhhhhjkxxxxxxxxxxxxxxxxxkhgjxxxxxxxxxxxx",
"xxxxxxxxxs&+@::@@@@@@@@=;@@@@@@@+->$@#txxxxxxxxxxxxxxxxxxxxxxxxxxxxxxxxxxxxxxxxxxxxxxxxxxxxxxxxxxxxxxxxxxxxxxxxxxxxxxxxxxxxxxxxxxxxxxxxxxxxxxxxxxxxxxxxxxxxxxxxxxxxxxxxxxxxxxxxxxxxxxxxxxxxxxxxxxxxxxxxxxxxxxxxxxxxxxxxxxxxxxxxxxxxxxxxxxxxxxxxxxxxxxxxxxxxxxxxx",
"xxxxxxxxxxt#+@::@@@@@@+*:@@@@@@@->@++6zxxxxxxxxxxxxxxxxxxxxxxxxxxxxxxxxxxxxxxxxxxxxxxxxxxxxxxxxxxxxxxxxxxxxxxxxxxxxxxxxxxxxxxxxxxxxxxxxxxxxxxxxxxxxxxxxxxxxxxxxxxxxxxxxxxxxxxxxxxxxxxxxxxxxxxxxxxxxxxxxxxxxxxxxxxxxxxxxxxxxxxxxxxxxxxxxxxxxxxxxxxxxxxxxxxxxxxxxx",
"xxxxxxxxxxx8+@#>;@@@@@@;;@@@@@@=<#@+,kxxxxxxxxxxxxxxxxxxxxxxxxxxxxxxxxxxxxxxxxxxxxxxxxxxxxxxxxxxxxxxxxxxxxxxxxxxxxxxxxxxxxxxxxxxxxxxxxxxxxxxxxxxxxxxxxxxxxxxxxxxxxxxxxxxxxxxxxxxxxxxxxxxxxxxxxxxxxxxxxxxxxxxxxxxxxxxxxxxxxxxxxxxxxxxxxxxxxxxxxxxxxxxxxxxxxxxxxxx",
"xxxxxxxxxxxk1+@@>>&#@@@=;+@@$&;<#@@-gxxxxxxxxxxxxxxxxxxxxxxxxxxxxxxxxxxxxxxxxxxxxxxxxxxxxxxxxxxxxxxxxxxxxxxxxxxxxxxxxxxxxxxxxxxxxxxxxxxxxxxxxxxxxxxxxxxxxxxxxxxxxxxxxxxxxxxxxxxxxxxxxxxxxxxxxxxxxxxxxxxxxxxxxxxxxxxxxxxxxxxxxxxxxxxxxxxxxxxxxxxxxxxxxxxxxxxxxxxx",
"xxxxxxxxxxxxg-+@#*;>>:=><=:>>;=@@@$pxxxxxxxxxxxxxxxxxxxxxxxxxxxxxxxxxxxxxxxxxxxxxxxxxxxxxxxxxxxxxxxxxxxxxxxxxxxxxxxxxxxxxxxxxxxxxxxxxxxxxxxxxxxxxxxxxxxxxxxxxxxxxxxxxxxxxxxxxxxxxxxxxxxxxxxxxxxxxxxxxxxxxxxxxxxxxxxxxxxxxxxxxxxxxxxxxxxxxxxxxxxxxxxxxxxxxxxxxxxx",
"xxxxxxxxxxxxxa$@@@@@#%=>>=&$@@@@@@rxxxxxxxxxxxxxxxxxxxxxxxxxxxxxxxxxxxxxxxxxxxxxxxxxxxxxxxxxxxxxxxxxxxxxxxxxxxxxxxxxxxxxxxxxxxxxxxxxxxxxxxxxxxxxxxxxxxxxxxxxxxxxxxxxxxxxxxxxxxxxxxxxxxxxxxxxxxxxxxxxxxxxxxxxxxxxxxxxxxxxxxxxxxxxxxxxxxxxxxxxxxxxxxxxxxxxxxxxxxxx",
"xxxxxxxxxxxxxxt@@@@@@+@+@@@@@@@@+5zxxxxxxxxxxxxxxxxxxxxxxxxxxxxxxxxxxxxxxxxxxxxxxxxxxxxxxxxxxxxxxxxxxxxxxxxxxxxxxxxxxxxxxxxxxxxxxxxxxxxxxxxxxxxxxxxxxxxxxxxxxxxxxxxxxxxxxxxxxxxxxxxxxxxxxxxxxxxxxxxxxxxxxxxxxxxxxxxxxxxxxxxxxxxxxxxxxxxxxxxxxxxxxxxxxxxxxxxxxxxx",
"xxxxxxxxxxxxxxz7@@@@@@@@@@@@@@@@>jxxxxxxxxxxxxxxxxxxxxxxxxxxxxxxxxxxxxxxxxxxxxxxxxxxxxxxxxxxxxxxxxxxxxxxxxxxxxxxxxxxxxxxxxxxxxxxxxxxxxxxxxxxxxxxxxxxxxxxxxxxxxxxxxxxxxxxxxxxxxxxxxxxxxxxxxxxxxxxxxxxxxxxxxxxxxxxxxxxxxxxxxxxxxxxxxxxxxxxxxxxxxxxxxxxxxxxxxxxxxxx",
"xxxxxxxxxxxxxxxj1&&**&**&&&&&&&:fxxxxxxxxxxxxxxxxxxxxxxxxxxxxxxxxxxxxxxxxxxxxxxxxxxxxxxxxxxxxxxxxxxxxxxxxxxxxxxxxxxxxxxxxxxxxxxxxxxxxxxxxxxxxxxxxxxxxxxxxxxxxxxxxxxxxxxxxxxxxxxxxxxxxxxxxxxxxxxxxxxxxxxxxxxxxxxxxxxxxxxxxxxxxxxxxxxxxxxxxxxxxxxxxxxxxxxxxxxxxxxx",
"xxxxxxxxxxxxxxxxkhjhhhhhhhhhhhhjxxxxxxxxxxxxxxxxxxxxxxxxxxxxxxxxxxxxxxxxxxxxxxxxxxxxxxxxxxxxxxxxxxxxxxxxxxxxxxxxxxxxxxxxxxxxxxxxxxxxxxxxxxxxxxxxxxxxxxxxxxxxxxxxxxxxxxxxxxxxxxxxxxxxxxxxxxxxxxxxxxxxxxxxxxxxxxxxxxxxxxxxxxxxxxxxxxxxxxxxxxxxxxxxxxxxxxxxxxxxxxxx",
"xxxxxxxxxxxxxxxxxxxxxxxxxxxxxxxxxxxxxxxxxxxxxxxxxxxxxxxxxxxxxxxxxxxxxxxxxxxxxxxxxxxxxxxxxxxxxxxxxxxxxxxxxxxxxxxxxxxxxxxxxxxxxxxxxxxxxxxxxxxxxxxxxxxxxxxxxxxxxxxxxxxxxxxxxxxxxxxxxxxxxxxxxxxxxxxxxxxxxxxxxxxxxxxxxxxxxxxxxxxxxxxxxxxxxxxxxxxxxxxxxxxxxxxxxxxxxxxx",
"xxxxxxxxxxxxxxxxxxxxxxxxxxxxxxxxxxxxxxxxxxxxxxxxxxxxxxxxxxxxxxxxxxxxxxxxxxxxxxxxxxxxxxxxxxxxxxxxxxxxxxxxxxxxxxxxxxxxxxxxxxxxxxxxxxxxxxxxxxxxxxxxxxxxxxxxxxxxxxxxxxxxxxxxxxxxxxxxxxxxxxxxxxxxxxxxxxxxxxxxxxxxxxxxxxxxxxxxxxxxxxxxxxxxxxxxxxxxxxxxxxxxxxxxxxxxxxxx",
"xxxxxxxxxxxxxxxxxxxxxxxxxxxxxxxxxxxxxxxxxxxxxxxxxxxxxxxxxxxxxxxxxxxxxxxxxxxxxxxxxxxxxxxxxxxxxxxxxxxxxxxxxxxxxxxxxxxxxxxxxxxxxxxxxxxxxxxxxxxxxxxxxxxxxxxxxxxxxxxxxxxxxxxxxxxxxxxxxxxxxxxxxxxxxxxxxxxxxxxxxxxxxxxxxxxxxxxxxxxxxxxxxxxxxxxxxxxxxxxxxxxxxxxxxxxxxxxx",
"xxxxxxxxxxxxxxxxxxxxxxxxxxxxxxxxxxxxxxxxxxxxxxxxxxxxxxxxxxxxxxxxxxxxxxxxxxxxxxxxxxxxxxxxxxxxxxxxxxxxxxxxxxxxxxxxxxxxxxxxxxxxxxxxxxxxxxxxxxxxxxxxxxxxxxxxxxxxxxxxxxxxxxxxxxxxxxxxxxxxxxxxxxxxxxxxxxxxxxxxxxxxxxxxxxxxxxxxxxxxxxxxxxxxxxxxxxxxxxxxxxxxxxxxxxxxxxxx",
"xxxxxxxxxxxxxxxxxxxxxxxxxxxxxxxxxxxxxxxxxxxxxxxxxxxxxxxxxxxxxxxxxxxxxxxxxxxxxxxxxxxxxxxxxxxxxxxxxxxxxxxxxxxxxxxxxxxxxxxxxxxxxxxxxxxxxxxxxxxxxxxxxxxxxxxxxxxxxxxxxxxxxxxxxxxxxxxxxxxxxxxxxxxxxxxxxxxxxxxxxxxxxxxxxxxxxxxxxxxxxxxxxxxxxxxxxxxxxxxxxxxxxxxxxxxxxxxx",
"xxxxxxxxxxxxxxxxxxxxxxxxxxxxxxxxxxxxxxxxxxxxxxxxxxxxxxxxxxxxxxxxxxxxxxxxxxxxxxxxxxxxxxxxxxxxxxxxxxxxxxxxxxxxxxxxxxxxxxxxxxxxxxxxxxxxxxxxxxxxxxxxxxxxxxxxxxxxxxxxxxxxxxxxxxxxxxxxxxxxxxxxxxxxxxxxxxxxxxxxxxxxxxxxxxxxxxxxxxxxxxxxxxxxxxxxxxxxxxxxxxxxxxxxxxxxxxxx",
"xxxxxxxxxxxxxxxxxxxxxxxxxxxxxxxxxxxxxxxxxxxxxxxxxxxxxxxxxxxxxxxxxxxxxxxxxxxxxxxxxxxxxxxxxxxxxxxxxxxxxxxxxxxxxxxxxxxxxxxxxxxxxxxxxxxxxxxxxxxxxxxxxxxxxxxxxxxxxxxxxxxxxxxxxxxxxxxxxxxxxxxxxxxxxxxxxxxxxxxxxxxxxxxxxxxxxxxxxxxxxxxxxxxxxxxxxxxxxxxxxxxxxxxxxxxxxxxx"
};
